Coordinates
version=1
nRows=23
nColumns=38
inDegrees=no

Units are S.I. units (second, meters, Newtons, ...)
If the header above contains a line with 'inDegrees', this indicates whether rotational values are in degrees (yes) or radians (no).

endheader
time	pelvis_tilt	pelvis_list	pelvis_rotation	pelvis_tx	pelvis_ty	pelvis_tz	hip_flexion_r	hip_adduction_r	hip_rotation_r	knee_angle_r	ankle_angle_r	subtalar_angle_r	mtp_angle_r	hip_flexion_l	hip_adduction_l	hip_rotation_l	knee_angle_l	ankle_angle_l	subtalar_angle_l	mtp_angle_l	lumbar_extension	lumbar_bending	lumbar_rotation	arm_flex_r	arm_add_r	arm_rot_r	elbow_flex_r	pro_sup_r	wrist_flex_r	wrist_dev_r	arm_flex_l	arm_add_l	arm_rot_l	elbow_flex_l	pro_sup_l	wrist_flex_l	wrist_dev_l
0.58	-2.79334	1.41799	-1.98931	0.609581	0.29971	0.959791	0.290536	-0.155424	-0.0063429	1.41004	-0.153112	0	0	0.0394929	0.109545	-0.240332	0.314346	0.0500324	0	0	-0.247903	-0.114348	-0.0219855	-0.241924	-0.0668483	-0.555727	0.435205	1.10123	0	0	-0.199483	-0.425007	0.58433	0.662842	0.476851	0	0
0.59	-2.83425	1.41625	-1.9397	0.607817	0.308385	0.961373	0.307196	-0.149459	-0.00869176	1.40695	-0.143901	0	0	0.0155621	0.108053	-0.23209	0.297573	0.05199	0	0	-0.253625	-0.106378	-0.0314812	-0.238987	-0.0669178	-0.559873	0.433585	1.10725	0	0	-0.197722	-0.425207	0.583355	0.664514	0.479485	0	0
0.6	-2.87537	1.41415	-1.88919	0.606007	0.317028	0.962832	0.321797	-0.143605	-0.0116421	1.39936	-0.134025	0	0	-0.00819271	0.105948	-0.223314	0.281365	0.0539612	0	0	-0.259312	-0.0980141	-0.0412575	-0.236708	-0.0668709	-0.563109	0.433585	1.11222	0	0	-0.195521	-0.425474	0.582943	0.666027	0.482061	0	0
0.61	-2.91411	1.41187	-1.8404	0.604135	0.325618	0.964135	0.334796	-0.138442	-0.0152037	1.38785	-0.122695	0	0	-0.0311185	0.10356	-0.213509	0.266385	0.0558195	0	0	-0.264984	-0.0896293	-0.0512829	-0.234829	-0.0665645	-0.566063	0.435077	1.11738	0	0	-0.192813	-0.425977	0.583338	0.667819	0.483305	0	0
0.62	-2.94856	1.40976	-1.79529	0.602221	0.334148	0.965239	0.346911	-0.134492	-0.0192756	1.37279	-0.109673	0	0	-0.0528648	0.101131	-0.202521	0.252177	0.0576117	0	0	-0.270168	-0.0815482	-0.06177	-0.232882	-0.0662535	-0.567272	0.436971	1.12161	0	0	-0.189975	-0.426536	0.583589	0.669685	0.484195	0	0
0.63	-2.9793	1.40799	-1.75376	0.600306	0.342638	0.966123	0.358168	-0.131228	-0.0232277	1.35419	-0.0954605	0	0	-0.0729792	0.0984768	-0.19141	0.239212	0.0597796	0	0	-0.274515	-0.0737703	-0.0722977	-0.230907	-0.0658739	-0.567229	0.439513	1.12392	0	0	-0.186724	-0.426769	0.584225	0.67043	0.485629	0	0
0.64	-3.00544	1.40653	-1.717	0.59843	0.351095	0.966811	0.368766	-0.12862	-0.0266239	1.33236	-0.0806927	0	0	-0.0916622	0.0959114	-0.180541	0.227231	0.0621799	0	0	-0.277982	-0.066674	-0.0820132	-0.229151	-0.0652215	-0.566398	0.442641	1.12441	0	0	-0.182566	-0.426992	0.586003	0.670056	0.487885	0	0
0.65	-3.02768	1.40499	-1.68497	0.596684	0.359469	0.96736	0.378395	-0.12621	-0.0287767	1.30742	-0.0675093	0	0	-0.109514	0.0935197	-0.170084	0.216453	0.0646565	0	0	-0.281281	-0.0604329	-0.0906337	-0.227317	-0.0642027	-0.565412	0.446565	1.12547	0	0	-0.177934	-0.427251	0.587673	0.669198	0.491443	0	0
0.66	-3.04529	1.40362	-1.65846	0.595059	0.367743	0.967751	0.387308	-0.124041	-0.0294341	1.27956	-0.0563853	0	0	-0.126572	0.0915789	-0.160176	0.206387	0.0673989	0	0	-0.284365	-0.0551867	-0.0983597	-0.224959	-0.0628977	-0.564402	0.450757	1.12658	0	0	-0.172974	-0.427341	0.588329	0.668365	0.495938	0	0
0.67	-3.05848	1.40256	-1.63713	0.593543	0.375975	0.967985	0.395634	-0.122507	-0.029469	1.24923	-0.0478247	0	0	-0.143228	0.0901645	-0.150799	0.196187	0.0701735	0	0	-0.28708	-0.0509269	-0.104997	-0.221977	-0.0615303	-0.56264	0.453815	1.12659	0	0	-0.167594	-0.427181	0.587863	0.667687	0.499999	0	0
0.68	-3.06937	1.40168	-1.61881	0.592106	0.384243	0.968072	0.402928	-0.121374	-0.0294059	1.21655	-0.0408226	0	0	-0.159791	0.0890114	-0.142038	0.185762	0.0729806	0	0	-0.289232	-0.0471789	-0.110503	-0.219109	-0.0602922	-0.559719	0.456625	1.12555	0	0	-0.161912	-0.426788	0.587559	0.6663	0.505044	0	0
0.69	-3.07809	1.40091	-1.60333	0.59074	0.392539	0.968021	0.409145	-0.120718	-0.0294525	1.18182	-0.0338486	0	0	-0.176256	0.088213	-0.133614	0.175214	0.0758489	0	0	-0.290995	-0.0439222	-0.115182	-0.216185	-0.058996	-0.556881	0.459553	1.12425	0	0	-0.156508	-0.425994	0.58552	0.665524	0.510245	0	0
0.7	-3.08589	1.40036	-1.58905	0.589458	0.400888	0.967854	0.414186	-0.120345	-0.0304011	1.14517	-0.0269393	0	0	-0.192408	0.0873183	-0.125246	0.164833	0.0786055	0	0	-0.292314	-0.0409108	-0.119391	-0.213111	-0.0575799	-0.554709	0.462093	1.12259	0	0	-0.151615	-0.42513	0.582289	0.665431	0.516973	0	0
0.71	-3.09236	1.40018	-1.57662	0.588276	0.409285	0.967568	0.418532	-0.120208	-0.0319492	1.10695	-0.0206361	0	0	-0.207902	0.0864449	-0.117125	0.155085	0.0814304	0	0	-0.293274	-0.0382609	-0.122735	-0.210029	-0.056346	-0.552109	0.463904	1.12132	0	0	-0.146601	-0.423748	0.577349	0.665723	0.523313	0	0
0.72	-3.09794	1.40026	-1.56505	0.587152	0.41775	0.967172	0.421817	-0.120518	-0.0348251	1.06703	-0.0148554	0	0	-0.222794	0.0853969	-0.108996	0.146033	0.0845727	0	0	-0.293816	-0.0358325	-0.125737	-0.207129	-0.0552809	-0.548917	0.464992	1.12013	0	0	-0.14164	-0.422397	0.572539	0.666145	0.529715	0	0
0.73	-3.10281	1.40024	-1.5544	0.586065	0.426295	0.966687	0.423702	-0.121306	-0.0396451	1.02574	-0.00989471	0	0	-0.237503	0.0842501	-0.101031	0.137697	0.0880985	0	0	-0.294287	-0.0334841	-0.12865	-0.204206	-0.0542505	-0.546441	0.466017	1.11796	0	0	-0.137065	-0.42093	0.56778	0.666418	0.537402	0	0
0.74	-3.10768	1.40027	-1.54352	0.58505	0.43492	0.966101	0.424391	-0.122536	-0.0467983	0.983176	-0.00624729	0	0	-0.251702	0.0826949	-0.0930739	0.130458	0.0920869	0	0	-0.29454	-0.0311711	-0.131614	-0.201636	-0.0532438	-0.543613	0.467126	1.11491	0	0	-0.132695	-0.41944	0.562614	0.666715	0.545924	0	0
0.75	-3.11295	1.40003	-1.53239	0.584086	0.44364	0.965444	0.423709	-0.124155	-0.0562258	0.93925	-0.00389676	0	0	-0.265974	0.0808915	-0.0853325	0.123723	0.096324	0	0	-0.294965	-0.0288003	-0.13417	-0.199758	-0.0524269	-0.540572	0.468796	1.1115	0	0	-0.128256	-0.41752	0.55582	0.668024	0.553536	0	0
0.76	-3.1202	1.39973	-1.51949	0.583189	0.452458	0.964714	0.421938	-0.125672	-0.0676753	0.894129	-0.00216819	0	0	-0.280331	0.07861	-0.0778116	0.117016	0.100747	0	0	-0.295344	-0.0260136	-0.136105	-0.198338	-0.0516846	-0.538382	0.470589	1.1081	0	0	-0.123545	-0.415516	0.550288	0.669149	0.561271	0	0
0.77	-3.1308	1.39951	-1.50343	0.582356	0.461354	0.963905	0.419079	-0.126416	-0.0817627	0.848216	-0.00057052	0	0	-0.294592	0.0755545	-0.070625	0.110459	0.105463	0	0	-0.29563	-0.0225168	-0.137662	-0.196928	-0.0511233	-0.537045	0.472062	1.10446	0	0	-0.11884	-0.413368	0.54599	0.669442	0.57095	0	0
0.78	3.13796	1.39901	-1.48412	0.581626	0.470366	0.963015	0.415159	-0.126179	-0.0981012	0.802048	0.000807197	0	0	-0.309265	0.0716884	-0.0642517	0.103858	0.11056	0	0	-0.296084	-0.0183461	-0.138631	-0.195968	-0.050807	-0.535549	0.474086	1.10041	0	0	-0.114411	-0.410888	0.541049	0.670408	0.579415	0	0
0.79	3.12046	1.39839	-1.46238	0.581018	0.479483	0.962033	0.410658	-0.12498	-0.116265	0.756012	0.00207813	0	0	-0.324063	0.0671573	-0.0589843	0.0972188	0.115831	0	0	-0.296514	-0.0137599	-0.138852	-0.195553	-0.05065	-0.533835	0.476554	1.09844	0	0	-0.110014	-0.407902	0.535173	0.671789	0.586667	0	0
0.8	3.10091	1.3978	-1.43936	0.580556	0.488683	0.96096	0.405736	-0.122626	-0.135806	0.710139	0.00324278	0	0	-0.338599	0.0621574	-0.0548307	0.0910482	0.121404	0	0	-0.296801	-0.00904276	-0.138274	-0.195319	-0.0504913	-0.532514	0.478505	1.09916	0	0	-0.105496	-0.404744	0.529657	0.673474	0.592609	0	0
